<svg width="114" height="89" viewBox="0 0 114 89" fill="none" xmlns="http://www.w3.org/2000/svg">
<path d="M48.5222 70.7949H48.5885C50.1675 70.7908 51.6845 71.3654 52.8094 72.3938C53.6534 73.1652 54.2321 74.1515 54.4723 75.2281C54.7124 76.3046 54.6033 77.423 54.1587 78.442C53.7141 79.4611 52.954 80.3349 51.9744 80.9531C50.9949 81.5714 49.8398 81.9063 48.6551 81.9155H48.6165C47.0349 81.9164 45.5169 81.337 44.3938 80.3035C43.2706 79.2701 42.6333 77.8664 42.6209 76.3987C42.6084 74.9309 43.2218 73.5182 44.3273 72.4684C45.4328 71.4187 46.9407 70.8171 48.5222 70.7949ZM46.3176 78.4942C46.6198 78.7737 46.9785 78.9952 47.373 79.1458C47.7676 79.2965 48.1903 79.3735 48.617 79.3723H48.6378C49.0627 79.3704 49.483 79.2903 49.8743 79.1366C50.2656 78.9828 50.6201 78.7585 50.9173 78.4766C51.2205 78.1924 51.46 77.8552 51.6218 77.4845C51.7836 77.1137 51.8645 76.7169 51.8598 76.317C51.8566 75.9237 51.7693 75.5349 51.6029 75.1731C51.4365 74.8114 51.1944 74.4839 50.8906 74.2097C50.2783 73.6469 49.4502 73.333 48.5884 73.3368C47.7267 73.3407 46.9019 73.662 46.2955 74.2302C45.6891 74.7984 45.3507 75.5669 45.3549 76.3666C45.359 77.1663 45.7054 77.9317 46.3176 78.4944V78.4942Z" fill="white"/>
<path d="M88.8928 80.2033C88.8788 80.2051 88.8647 80.2051 88.8507 80.2033C87.0412 80.2186 85.2998 79.5123 84.0095 78.2398C82.7192 76.9673 81.9858 75.2329 81.9706 73.4181C81.9554 71.6033 82.6596 69.8568 83.9284 68.5627C85.1971 67.2687 86.9265 66.5331 88.736 66.5178H88.8179C90.6138 66.5128 92.3392 67.2185 93.6193 68.4818C94.5811 69.4309 95.2407 70.6447 95.5149 71.9697C95.789 73.2947 95.6654 74.6714 95.1595 75.926C94.6537 77.1805 93.7883 78.2565 92.6729 79.0179C91.5575 79.7793 90.242 80.192 88.8928 80.2038V80.2033ZM91.7595 70.3862C90.9747 69.6121 89.9171 69.1798 88.8164 69.1834H88.7659C87.6712 69.2027 86.6281 69.6534 85.8622 70.438C85.0963 71.2226 84.6691 72.2781 84.6731 73.3761C84.679 74.4829 85.122 75.5423 85.9051 76.3222C86.6882 77.102 87.7476 77.5388 88.8512 77.5369H88.8764C89.4209 77.534 89.9594 77.4227 90.4606 77.2096C90.9619 76.9965 91.416 76.6856 91.7967 76.2952C92.1852 75.9019 92.492 75.4352 92.6993 74.9221C92.9066 74.409 93.0103 73.8597 93.0044 73.3062C93 72.761 92.8877 72.2222 92.674 71.7209C92.4602 71.2197 92.1494 70.766 91.7595 70.3862Z" fill="white"/>
<path d="M4.55426 73.7693H23.7045V35.6334C23.7045 34.6127 24.1102 33.6339 24.8323 32.9121C25.5543 32.1904 26.5336 31.7849 27.5548 31.7849C28.576 31.7849 29.5553 32.1904 30.2773 32.9121C30.9994 33.6339 31.4051 34.6127 31.4051 35.6334V39.1411H37.6774V19.4803C37.6774 19.1271 37.8178 18.7883 38.0678 18.5384C38.3177 18.2886 38.6566 18.1483 39.0101 18.1483H44.9537C45.3072 18.1483 45.6461 18.2886 45.8961 18.5384C46.146 18.7883 46.2864 19.1271 46.2864 19.4803V53.1256L48.7918 53.13V31.4353C48.7917 31.0859 48.929 30.7505 49.174 30.5013L68.1882 11.1707H64.5234C63.129 11.1669 61.7929 10.6116 60.8069 9.62608C59.821 8.6406 59.2654 7.30509 59.2616 5.91141C59.2629 4.51675 59.8176 3.17955 60.804 2.19317C61.7904 1.20679 63.128 0.651783 64.5234 0.649902H99.5771C100.972 0.653713 102.308 1.20934 103.294 2.19531C104.28 3.18127 104.836 4.51735 104.839 5.91141C104.837 7.23798 104.335 8.51501 103.431 9.48713C102.528 10.4593 101.291 11.0548 99.968 11.1547V42.8175H101.529C103.547 42.8197 105.482 43.6221 106.909 45.0484C108.336 46.4747 109.139 48.4085 109.141 50.4256V56.5174H110.418C111.267 56.5183 112.082 56.8559 112.682 57.456C113.282 58.0562 113.62 58.8699 113.621 59.7187V66.643C113.62 67.4917 113.282 68.3055 112.682 68.9056C112.082 69.5058 111.267 69.8434 110.418 69.8443H109.141V71.7602C109.141 72.0347 109.056 72.3026 108.898 72.5271C108.74 72.7516 108.516 72.9217 108.258 73.0143L103.711 74.6425C103.187 82.4857 96.6515 88.7358 88.7188 88.7591H88.6744C84.9003 88.7612 81.2617 87.3535 78.4724 84.8124C75.6831 82.2712 73.9445 78.78 73.5976 75.0237H60.9665C61 75.3915 61.0222 75.7612 61.0231 76.1321C61.0363 79.4629 59.7271 82.6628 57.3828 85.03C55.0386 87.3971 51.8506 88.7383 48.5184 88.7591H48.4811C45.1539 88.7661 41.9595 87.4545 39.5982 85.1117C37.2367 82.7688 35.9009 79.5858 35.8832 76.2602C35.8832 75.8369 35.9054 75.4142 35.9472 74.9935H33.902C33.5486 74.9935 33.2096 74.8531 32.9597 74.6033C32.7098 74.3535 32.5694 74.0147 32.5694 73.6614V58.6952C32.5713 57.2978 33.0969 55.9517 34.0424 54.9223C34.988 53.8929 36.285 53.2548 37.6779 53.1338V50.4322H31.4055V80.0676C31.4073 80.9645 31.0951 81.8338 30.523 82.5248C29.9509 83.2158 29.155 83.685 28.2732 83.8511C27.3913 84.0171 26.4792 83.8696 25.6947 83.434C24.9103 82.9985 24.303 82.3023 23.9782 81.4662H4.5547C3.53355 81.4662 2.55421 81.0608 1.83215 80.3391C1.11008 79.6173 0.70443 78.6385 0.70443 77.6178C0.70443 76.5971 1.11008 75.6183 1.83215 74.8965C2.55421 74.1748 3.53355 73.7693 4.5547 73.7693H4.55426ZM109.141 67.1802H110.418C110.56 67.1784 110.696 67.1212 110.796 67.0209C110.897 66.9205 110.954 66.7849 110.956 66.643V59.7187C110.954 59.5768 110.897 59.4412 110.796 59.3408C110.696 59.2405 110.56 59.1833 110.418 59.1814H109.141V67.1802ZM43.6211 20.8124H40.3427V53.1156L43.6211 53.1211V20.8124ZM102.174 5.91141C102.17 5.22388 101.896 4.56537 101.41 4.079C100.924 3.59262 100.265 3.31769 99.5771 3.31396H64.5238C63.8351 3.31501 63.175 3.58909 62.6882 4.07604C62.2014 4.56299 61.9278 5.22305 61.9273 5.91141C61.9311 6.59856 62.2058 7.2565 62.692 7.7424C63.1781 8.22829 63.8363 8.50291 64.5238 8.50664H99.5771C100.266 8.50606 100.926 8.23244 101.412 7.74587C101.899 7.2593 102.173 6.59953 102.174 5.91141ZM71.4003 72.3596H73.597C74.2729 64.6589 80.7249 58.5827 88.5609 58.562H88.6054C90.8784 58.5556 93.1236 59.0622 95.1734 60.0442C97.2233 61.0261 99.0249 62.4579 100.444 64.2329C100.555 64.3692 100.638 64.5261 100.688 64.6945C100.738 64.8631 100.755 65.0398 100.736 65.2147C100.718 65.3895 100.665 65.5589 100.581 65.7132C100.496 65.8675 100.382 66.0036 100.245 66.1137C100.108 66.2237 99.9503 66.3055 99.7813 66.3543C99.6123 66.4032 99.4354 66.4181 99.2606 66.3983C99.0858 66.3784 98.9167 66.3242 98.763 66.2387C98.6093 66.1532 98.4741 66.0382 98.3651 65.9002C97.1953 64.437 95.7102 63.2568 94.0204 62.4475C92.3306 61.6381 90.4798 61.2206 88.606 61.2261H88.5683C81.7495 61.2441 76.2021 66.8361 76.2001 73.6916V73.7298C76.2222 77.0205 77.5469 80.1685 79.8846 82.4857C82.2222 84.8029 85.3826 86.1007 88.6749 86.0955H88.712C95.5012 86.0755 101.051 80.5085 101.083 73.6921V73.5917C101.082 72.1076 100.811 70.636 100.284 69.2484C100.159 68.9183 100.17 68.5522 100.315 68.2304C100.46 67.9086 100.727 67.6575 101.057 67.5322C101.387 67.4069 101.754 67.4176 102.076 67.562C102.398 67.7065 102.65 67.9728 102.775 68.3025C103.207 69.4415 103.498 70.6292 103.64 71.839L106.476 70.8224V50.4256C106.474 49.1149 105.952 47.8583 105.025 46.9315C104.098 46.0047 102.841 45.4833 101.529 45.4815H81.1596L71.4003 55.041V72.3596ZM92.0787 29.2308C91.8939 29.0091 91.6501 28.8444 91.3755 28.7556C91.1008 28.6669 90.8067 28.6577 90.5271 28.7292C90.2474 28.8008 89.9938 28.95 89.7956 29.1597C89.5974 29.3694 89.4627 29.631 89.4072 29.9141L87.597 39.1384C87.5375 39.4414 87.3746 39.7144 87.136 39.9106C86.8975 40.1068 86.5981 40.214 86.2892 40.214H76.5497C76.3786 40.214 76.2092 40.2477 76.0512 40.3131C75.8931 40.3786 75.7495 40.4745 75.6286 40.5954C75.5076 40.7163 75.4116 40.8598 75.3462 41.0178C75.2807 41.1758 75.247 41.3451 75.247 41.5161C75.247 41.6871 75.2807 41.8564 75.3462 42.0143C75.4116 42.1723 75.5076 42.3159 75.6286 42.4368C75.7495 42.5577 75.8931 42.6536 76.0512 42.719C76.2092 42.7844 76.3786 42.8181 76.5497 42.8181H90.1401L92.4072 30.4824C92.4477 30.2625 92.4393 30.0363 92.3826 29.82C92.3258 29.6037 92.222 29.4025 92.0787 29.2308ZM77.3528 45.4815H76.5499C75.4975 45.4815 74.4883 45.0637 73.7441 44.3199C73 43.5761 72.5819 42.5673 72.5819 41.5154C72.5819 40.4635 73 39.4547 73.7441 38.7109C74.4883 37.9671 75.4975 37.5493 76.5499 37.5493H85.1915L86.7907 29.4017C87.0033 28.3152 87.6374 27.3568 88.5546 26.7361C89.4718 26.1154 90.5975 25.8827 91.6858 26.0888C92.7741 26.295 93.7366 26.9233 94.3629 27.8365C94.9892 28.7497 95.2285 29.8735 95.0285 30.9624L92.8501 42.8175H97.3027V11.1707H71.9256L52.1008 31.3258L57.184 35.4618L58.8649 33.4848L56.0885 31.2521C55.9522 31.1425 55.8388 31.0071 55.7548 30.8536C55.6708 30.7001 55.6178 30.5316 55.599 30.3577C55.5801 30.1838 55.5957 30.0079 55.6449 29.84C55.694 29.6721 55.7758 29.5156 55.8855 29.3793C55.9952 29.243 56.1307 29.1296 56.2842 29.0457C56.4378 28.9617 56.6063 28.9088 56.7803 28.89C56.9543 28.8711 57.1303 28.8867 57.2983 28.9359C57.4662 28.985 57.6229 29.0667 57.7592 29.1764L65.3176 35.2527C65.4558 35.3617 65.571 35.497 65.6565 35.6507C65.7421 35.8045 65.7963 35.9737 65.8161 36.1485C65.8359 36.3234 65.8208 36.5004 65.7717 36.6694C65.7227 36.8384 65.6406 36.9959 65.5303 37.133C65.42 37.2701 65.2835 37.384 65.1289 37.4681C64.9743 37.5523 64.8045 37.6049 64.6295 37.6231C64.4544 37.6412 64.2774 37.6245 64.1088 37.574C63.9402 37.5234 63.7833 37.4399 63.6471 37.3284L60.9436 35.155L59.252 37.1441L61.1189 38.6631C61.2724 38.788 61.3962 38.9455 61.4812 39.1242C61.5662 39.3028 61.6104 39.4982 61.6104 39.6961V53.1496H69.5233L77.3528 45.4815ZM51.4571 34.2372V53.1345L58.9444 53.1473V40.3292L51.4571 34.2372ZM41.4755 83.2223C43.3372 85.0704 45.857 86.104 48.4808 86.0959H48.5102C51.1359 86.078 53.6474 85.0198 55.4936 83.1534C57.3398 81.2871 58.3699 78.7649 58.358 76.1404C58.3567 75.4157 58.2748 74.6934 58.1137 73.9869C57.599 71.803 56.363 69.8561 54.6051 68.4608C52.8472 67.0655 50.6701 66.303 48.4253 66.2967H48.3951C46.1645 66.2994 44.0009 67.0593 42.2588 68.4519C40.5168 69.8445 39.2996 71.7871 38.8066 73.9616C38.6328 74.7124 38.5461 75.4807 38.5481 76.2514C38.5488 77.5493 38.808 78.8342 39.3106 80.031C39.8132 81.2279 40.5491 82.3127 41.4755 83.2223ZM35.2342 58.6961V72.3294H36.4954C37.2988 69.8065 38.8841 67.6044 41.022 66.0412C43.16 64.478 45.7398 63.6348 48.3887 63.6335H61.2335C61.5869 63.6335 61.9259 63.7738 62.1758 64.0236C62.4257 64.2734 62.5661 64.6123 62.5661 64.9655C62.5661 65.3188 62.4257 65.6576 62.1758 65.9074C61.9259 66.1572 61.5869 66.2976 61.2335 66.2976H56.1507C58.1555 67.8409 59.6465 69.954 60.4281 72.3596H68.735V66.2967H66.0475C65.694 66.2967 65.3551 66.1563 65.1051 65.9065C64.8552 65.6567 64.7148 65.3179 64.7148 64.9646C64.7148 64.6114 64.8552 64.2726 65.1051 64.0228C65.3551 63.7729 65.694 63.6326 66.0475 63.6326H68.735V55.8136L38.155 55.7759C37.3806 55.7767 36.6382 56.0846 36.0907 56.6319C35.5431 57.1792 35.2351 57.9212 35.2342 58.6952V58.6961ZM31.4051 47.769H37.6774V41.8051H31.4051V47.769ZM26.3698 80.0592C26.3698 80.0729 26.3712 80.0865 26.3716 80.1003C26.3801 80.4112 26.5108 80.7063 26.7353 80.9218C26.9598 81.1372 27.2601 81.2556 27.5713 81.2515C27.8825 81.2473 28.1796 81.1208 28.3982 80.8995C28.6169 80.6781 28.7396 80.3796 28.7398 80.0685V35.6334C28.7398 35.3193 28.6149 35.018 28.3927 34.7959C28.1705 34.5738 27.8691 34.449 27.5548 34.449C27.2405 34.449 26.9391 34.5738 26.7169 34.7959C26.4947 35.018 26.3698 35.3193 26.3698 35.6334V80.0592ZM3.71957 78.4539C3.8287 78.5643 3.95867 78.652 4.10194 78.712C4.24521 78.7719 4.39894 78.8029 4.55426 78.8031H23.7045V76.4334H4.55426C4.31984 76.4329 4.09056 76.502 3.89557 76.6321C3.70058 76.7621 3.54869 76.9472 3.45921 77.1638C3.36974 77.3803 3.34672 77.6186 3.39307 77.8483C3.43944 78.078 3.55308 78.2887 3.71957 78.4536V78.4539Z" fill="white"/>
</svg>
