<svg width="33" height="72" viewBox="0 0 33 72" fill="none" xmlns="http://www.w3.org/2000/svg">
<path fill-rule="evenodd" clip-rule="evenodd" d="M26.5651 0.233887C29.9182 0.233887 32.6167 3.35971 32.6167 7.23687V24.7457C32.6167 28.6228 29.9182 31.7421 26.5651 31.7421H24.2851V63.0022C24.2437 63.8492 24.0695 64.6291 23.5158 65.2682C19.9792 69.3151 18.4237 71.5218 16.7613 71.6355C15.027 71.754 13.1764 69.5951 8.83898 64.8719C8.47058 64.2483 8.31154 63.531 8.3656 62.8863V56.5299C8.3656 55.8935 8.58041 55.5781 8.99488 55.1036L11.0513 52.7512C11.909 51.7643 11.9535 49.9462 11.0156 48.9898L8.97342 46.8958C8.62817 46.5436 8.36488 46.2034 8.36488 45.4594V31.7413H6.08961C2.73727 31.7413 0.0371094 28.6219 0.0371094 24.7447V7.23687C0.0371094 3.36062 2.73727 0.233887 6.08961 0.233887H26.5651ZM23.476 10.4841V8.63746C23.476 7.68105 22.807 6.91407 21.9796 6.91407H10.6719C9.84139 6.91407 9.17393 7.68105 9.17393 8.63746V10.4841C9.17393 11.4424 9.84297 12.2148 10.6719 12.2148H21.9789C22.807 12.2148 23.476 11.4424 23.476 10.4841Z" fill="#E9631A"/>
</svg>
