<svg width="174" height="54" viewBox="0 0 174 54" fill="none" xmlns="http://www.w3.org/2000/svg">
<g clip-path="url(#clip0_161_607)">
<path fill-rule="evenodd" clip-rule="evenodd" d="M57.7368 2.1358C60.5029 2.1358 62.7289 4.3664 62.7289 7.13315V19.6275C62.7289 22.3942 60.5029 24.6202 57.7368 24.6202H55.856V46.9275C55.8219 47.5319 55.6782 48.0884 55.2214 48.5445C52.304 51.4324 51.0209 53.0071 49.6495 53.0882C48.2189 53.1728 46.6923 51.6322 43.1143 48.2617C42.8104 47.8167 42.6792 47.3048 42.7238 46.8448V42.3088C42.7238 41.8547 42.901 41.6296 43.2429 41.291L44.9393 39.6123C45.6468 38.9081 45.6835 37.6107 44.9098 36.9282L43.2252 35.4339C42.9404 35.1826 42.7232 34.9398 42.7232 34.4089V24.6196H40.8463C38.0809 24.6196 35.8535 22.3936 35.8535 19.6268V7.13315C35.8535 4.36705 38.0809 2.1358 40.8463 2.1358H57.7368ZM55.1886 9.45037V8.13262C55.1886 7.45012 54.6367 6.9028 53.9542 6.9028H44.6263C43.9412 6.9028 43.3906 7.45012 43.3906 8.13262V9.45037C43.3906 10.1342 43.9425 10.6854 44.6263 10.6854H53.9536C54.6367 10.6854 55.1886 10.1342 55.1886 9.45037Z" fill="#E9631A"/>
<path fill-rule="evenodd" clip-rule="evenodd" d="M30.4684 6.44999C30.6101 6.45001 30.7516 6.45003 30.893 6.45003C31.3668 6.45003 31.8439 6.45003 32.3178 6.45134C32.3 6.67775 32.2836 6.90481 32.2836 7.1345V9.24565C32.0827 9.24366 31.8807 9.24094 31.6793 9.23822C31.415 9.23466 31.1516 9.23111 30.8924 9.22925C26.9044 9.23646 22.5895 9.3769 18.9434 9.62759C17.5646 9.7234 16.2967 10.4682 15.4443 11.847C13.6159 14.8073 11.9865 17.5938 10.9608 20.6926C10.9608 20.6926 22.4012 21.8332 30.8924 21.8332C31.2713 21.8332 31.667 21.8257 32.0625 21.8183C32.2437 21.8149 32.4249 21.8116 32.6045 21.8089C33.4905 24.7023 36.0925 26.7688 39.1506 27.4861V30.6755H20.2565C19.3509 30.6755 19.1488 31.7209 19.5655 32.7289C20.4377 34.863 22.6893 36.2989 24.9783 36.2989H36.8104C37.7069 36.2989 38.5922 36.0725 39.3993 35.6774C39.7898 36.7976 40.5438 37.826 40.8569 38.1016V38.6332C39.9138 39.6005 39.1559 40.9582 39.1559 42.3088V45.0165H14.3227V49.7625C14.3227 50.7383 13.5346 51.5245 12.5607 51.5245H7.57057C6.59473 51.5245 5.80854 50.739 5.80854 49.7625V44.7665C4.3707 44.206 3.13301 42.6953 3.13301 40.909V30.2351C3.13301 28.9305 3.65932 27.4769 4.38382 26.0975L3.4572 25.8835C1.0376 25.3198 0.534915 24.5126 0.0945711 22.8622C-0.308367 21.3679 0.613008 20.1656 2.15979 20.1656H7.71035C8.95329 16.6921 10.3767 13.2632 12.5843 10.0108C13.5562 8.58218 14.9101 7.34646 17.0048 7.05443C21.3946 6.44877 25.975 6.44939 30.4684 6.44999ZM10.4062 29.6832C9.76835 29.571 9.23219 29.5172 8.78004 29.5139C7.43407 29.4975 6.86576 29.926 6.65116 30.5882C6.26463 31.774 5.82363 34.1083 7.92298 34.8774C9.38077 35.4103 12.1936 35.8162 14.1978 36.1054C14.5656 36.1585 14.9061 36.2077 15.206 36.2529C17.0619 36.5325 17.5305 35.4339 16.8854 33.7992C15.6798 30.7614 12.9584 30.1196 10.4062 29.6832Z" fill="#E9631A"/>
<path d="M88.3161 28H82.1661L78.4461 21.67L74.8461 28H68.9961L75.7161 18.04L69.3861 8.20001H75.4761L78.8661 14.26L82.2861 8.20001H87.8961L81.5661 17.89L88.3161 28Z" fill="#131313"/>
<path d="M98.6707 18.49C98.6707 17.79 98.4707 17.24 98.0707 16.84C97.6907 16.42 97.1707 16.21 96.5107 16.21C95.8507 16.21 95.2807 16.38 94.8007 16.72C94.3407 17.04 94.0207 17.62 93.8407 18.46L89.5207 17.44C89.8007 16 90.5407 14.85 91.7407 13.99C92.9407 13.13 94.6307 12.7 96.8107 12.7C98.2707 12.7 99.5107 12.92 100.531 13.36C101.571 13.78 102.361 14.42 102.901 15.28C103.461 16.12 103.741 17.16 103.741 18.4V23.89C103.741 24.67 104.091 25.06 104.791 25.06C105.151 25.06 105.441 25.02 105.661 24.94L105.361 27.85C104.761 28.13 104.031 28.27 103.171 28.27C102.391 28.27 101.701 28.15 101.101 27.91C100.501 27.65 100.031 27.27 99.6907 26.77C99.3507 26.25 99.1807 25.6 99.1807 24.82V24.64L99.7507 24.43C99.7507 25.29 99.4907 26.01 98.9707 26.59C98.4707 27.17 97.8107 27.6 96.9907 27.88C96.1907 28.16 95.3507 28.3 94.4707 28.3C93.4507 28.3 92.5607 28.14 91.8007 27.82C91.0407 27.5 90.4507 27.04 90.0307 26.44C89.6307 25.82 89.4307 25.06 89.4307 24.16C89.4307 23.08 89.7507 22.19 90.3907 21.49C91.0507 20.77 92.0807 20.27 93.4807 19.99L99.1507 18.82L99.1207 21.52L96.2407 22.12C95.6407 22.24 95.1907 22.42 94.8907 22.66C94.6107 22.88 94.4707 23.22 94.4707 23.68C94.4707 24.12 94.6307 24.45 94.9507 24.67C95.2707 24.89 95.6507 25 96.0907 25C96.4307 25 96.7507 24.95 97.0507 24.85C97.3707 24.75 97.6507 24.6 97.8907 24.4C98.1307 24.18 98.3207 23.91 98.4607 23.59C98.6007 23.27 98.6707 22.89 98.6707 22.45V18.49Z" fill="#131313"/>
<path d="M107.674 28V13H112.174L112.384 16.24C112.764 15.12 113.324 14.25 114.064 13.63C114.824 13.01 115.784 12.7 116.944 12.7C117.324 12.7 117.644 12.73 117.904 12.79C118.184 12.85 118.404 12.93 118.564 13.03L118.054 17.23C117.854 17.15 117.594 17.09 117.274 17.05C116.974 16.99 116.604 16.96 116.164 16.96C115.564 16.96 115.004 17.09 114.484 17.35C113.964 17.61 113.544 18 113.224 18.52C112.924 19.02 112.774 19.66 112.774 20.44V28H107.674Z" fill="#131313"/>
<path d="M127.709 28.3C126.049 28.3 124.609 27.99 123.389 27.37C122.189 26.75 121.259 25.86 120.599 24.7C119.939 23.54 119.609 22.14 119.609 20.5C119.609 18.86 119.939 17.46 120.599 16.3C121.259 15.14 122.179 14.25 123.359 13.63C124.559 13.01 125.929 12.7 127.469 12.7C129.049 12.7 130.389 13.01 131.489 13.63C132.609 14.23 133.459 15.07 134.039 16.15C134.619 17.21 134.909 18.43 134.909 19.81C134.909 20.17 134.899 20.53 134.879 20.89C134.859 21.25 134.829 21.55 134.789 21.79H122.909V19.06H132.539L130.109 19.99C130.109 18.79 129.889 17.87 129.449 17.23C129.029 16.59 128.369 16.27 127.469 16.27C126.829 16.27 126.279 16.42 125.819 16.72C125.379 17.02 125.039 17.49 124.799 18.13C124.579 18.77 124.469 19.59 124.469 20.59C124.469 21.57 124.599 22.37 124.859 22.99C125.119 23.59 125.489 24.03 125.969 24.31C126.449 24.57 127.029 24.7 127.709 24.7C128.469 24.7 129.069 24.55 129.509 24.25C129.969 23.95 130.309 23.53 130.529 22.99L134.609 24.34C134.329 25.2 133.839 25.93 133.139 26.53C132.459 27.11 131.639 27.55 130.679 27.85C129.739 28.15 128.749 28.3 127.709 28.3Z" fill="#131313"/>
<path d="M137.762 28V13H142.322L142.592 18.16L142.022 17.59C142.222 16.51 142.572 15.61 143.072 14.89C143.592 14.17 144.232 13.63 144.992 13.27C145.772 12.89 146.642 12.7 147.602 12.7C148.642 12.7 149.542 12.9 150.302 13.3C151.082 13.7 151.692 14.29 152.132 15.07C152.572 15.85 152.792 16.83 152.792 18.01V28H147.692V19.36C147.692 18.32 147.492 17.6 147.092 17.2C146.692 16.8 146.182 16.6 145.562 16.6C145.082 16.6 144.632 16.72 144.212 16.96C143.792 17.18 143.462 17.54 143.222 18.04C142.982 18.54 142.862 19.21 142.862 20.05V28H137.762Z" fill="#131313"/>
<path d="M162.547 8.22998V22.66C162.547 23.38 162.717 23.9 163.057 24.22C163.417 24.52 163.907 24.67 164.527 24.67C165.007 24.67 165.417 24.62 165.757 24.52C166.117 24.4 166.437 24.23 166.717 24.01L167.257 27.16C166.757 27.52 166.127 27.8 165.367 28C164.607 28.2 163.827 28.3 163.027 28.3C161.887 28.3 160.897 28.14 160.057 27.82C159.237 27.5 158.597 26.99 158.137 26.29C157.697 25.59 157.467 24.66 157.447 23.5V9.63998L162.547 8.22998ZM167.017 13V16.63H154.867V13H167.017Z" fill="#131313"/>
<path d="M78.9059 42.296C78.6819 42.8933 78.3619 43.4107 77.9459 43.848C77.5299 44.2747 77.0393 44.6 76.4739 44.824C75.9193 45.048 75.3113 45.16 74.6499 45.16C73.6473 45.16 72.7779 44.9413 72.0419 44.504C71.3166 44.056 70.7513 43.4267 70.3459 42.616C69.9513 41.8053 69.7539 40.84 69.7539 39.72C69.7539 38.6 69.9513 37.6347 70.3459 36.824C70.7513 36.0133 71.3166 35.3893 72.0419 34.952C72.7779 34.504 73.6366 34.28 74.6179 34.28C75.3006 34.28 75.9086 34.376 76.4419 34.568C76.9753 34.7493 77.4286 35.0267 77.8019 35.4C78.1859 35.7627 78.4899 36.2107 78.7139 36.744L77.4499 37.336C77.2153 36.728 76.8739 36.2693 76.4259 35.96C75.9886 35.64 75.4179 35.48 74.7139 35.48C73.9993 35.48 73.3699 35.6507 72.8259 35.992C72.2819 36.3227 71.8553 36.8027 71.5459 37.432C71.2473 38.0613 71.0979 38.824 71.0979 39.72C71.0979 40.6053 71.2419 41.368 71.5299 42.008C71.8179 42.6373 72.2286 43.1227 72.7619 43.464C73.2953 43.7947 73.9246 43.96 74.6499 43.96C75.3539 43.96 75.9673 43.784 76.4899 43.432C77.0126 43.0693 77.3913 42.5307 77.6259 41.816L78.9059 42.296Z" fill="#131313"/>
<path d="M85.7943 39.832C85.7943 39.2347 85.6343 38.776 85.3143 38.456C84.9943 38.1253 84.5411 37.96 83.9544 37.96C83.3997 37.96 82.9303 38.0827 82.5463 38.328C82.1623 38.5627 81.8796 38.9467 81.6983 39.48L80.6583 38.84C80.8716 38.2427 81.2663 37.7627 81.8423 37.4C82.4183 37.0267 83.1331 36.84 83.9864 36.84C84.5624 36.84 85.0851 36.9413 85.5544 37.144C86.0237 37.336 86.3916 37.6347 86.6583 38.04C86.9356 38.4347 87.0743 38.9467 87.0743 39.576V43.448C87.0743 43.832 87.2771 44.024 87.6824 44.024C87.8851 44.024 88.0824 43.9973 88.2744 43.944L88.2104 44.952C87.997 45.0587 87.7196 45.112 87.3783 45.112C87.069 45.112 86.7916 45.0533 86.5463 44.936C86.301 44.8187 86.1091 44.6427 85.9704 44.408C85.8317 44.1627 85.7624 43.8587 85.7624 43.496V43.336L86.0824 43.384C85.9544 43.8 85.7357 44.1413 85.4264 44.408C85.1171 44.664 84.7704 44.856 84.3864 44.984C84.0024 45.1013 83.6237 45.16 83.2504 45.16C82.7811 45.16 82.3436 45.08 81.9383 44.92C81.533 44.76 81.2076 44.52 80.9623 44.2C80.7276 43.8693 80.6104 43.464 80.6104 42.984C80.6104 42.3867 80.8076 41.896 81.2023 41.512C81.6076 41.1173 82.1676 40.8507 82.8823 40.712L86.0503 40.088V41.144L83.4743 41.672C82.9516 41.7787 82.5624 41.928 82.3064 42.12C82.0504 42.312 81.9223 42.5787 81.9223 42.92C81.9223 43.2507 82.0504 43.5227 82.3064 43.736C82.5731 43.9387 82.9464 44.04 83.4264 44.04C83.7357 44.04 84.0291 44.0027 84.3064 43.928C84.5944 43.8427 84.8503 43.72 85.0743 43.56C85.2983 43.3893 85.4743 43.1813 85.6023 42.936C85.7303 42.68 85.7943 42.3813 85.7943 42.04V39.832Z" fill="#131313"/>
<path d="M90.1855 45V37H91.2255L91.4015 38.312C91.6255 37.8213 91.9508 37.4533 92.3775 37.208C92.8148 36.9627 93.3428 36.84 93.9615 36.84C94.1002 36.84 94.2495 36.8507 94.4095 36.872C94.5802 36.8933 94.7242 36.936 94.8415 37L94.6175 38.168C94.5002 38.1253 94.3722 38.0933 94.2335 38.072C94.0948 38.0507 93.8975 38.04 93.6415 38.04C93.3108 38.04 92.9748 38.136 92.6335 38.328C92.3028 38.52 92.0255 38.8133 91.8015 39.208C91.5775 39.592 91.4655 40.0827 91.4655 40.68V45H90.1855Z" fill="#131313"/>
<path d="M106.035 34.44C107.112 34.44 107.976 34.7173 108.627 35.272C109.277 35.8267 109.603 36.5787 109.603 37.528C109.603 38.4773 109.272 39.2187 108.611 39.752C107.96 40.2747 107.096 40.536 106.019 40.536L105.907 40.616H103.315V45H102.035V34.44H106.035ZM106.019 39.416C106.776 39.416 107.336 39.2613 107.699 38.952C108.072 38.632 108.259 38.1573 108.259 37.528C108.259 36.8987 108.072 36.4293 107.699 36.12C107.336 35.8 106.776 35.64 106.019 35.64H103.315V39.416H106.019ZM106.755 39.672L110.243 45H108.723L105.683 40.376L106.755 39.672Z" fill="#131313"/>
<path d="M115.514 45.16C114.756 45.16 114.079 44.9947 113.482 44.664C112.895 44.3333 112.436 43.8587 112.106 43.24C111.775 42.6107 111.61 41.864 111.61 41C111.61 40.136 111.775 39.3947 112.106 38.776C112.436 38.1467 112.89 37.6667 113.466 37.336C114.042 37.0053 114.698 36.84 115.434 36.84C116.18 36.84 116.815 37 117.338 37.32C117.871 37.64 118.276 38.0773 118.554 38.632C118.831 39.176 118.97 39.7893 118.97 40.472C118.97 40.6533 118.964 40.8187 118.954 40.968C118.943 41.1173 118.927 41.2507 118.906 41.368H112.442V40.232H118.346L117.69 40.36C117.69 39.592 117.476 39 117.05 38.584C116.634 38.168 116.084 37.96 115.402 37.96C114.879 37.96 114.426 38.0827 114.042 38.328C113.668 38.5627 113.375 38.9093 113.162 39.368C112.959 39.816 112.858 40.36 112.858 41C112.858 41.6293 112.964 42.1733 113.178 42.632C113.391 43.0907 113.69 43.4427 114.074 43.688C114.468 43.9227 114.938 44.04 115.482 44.04C116.068 44.04 116.543 43.928 116.906 43.704C117.279 43.48 117.578 43.176 117.802 42.792L118.81 43.384C118.607 43.7467 118.346 44.0613 118.026 44.328C117.716 44.5947 117.348 44.8027 116.922 44.952C116.506 45.0907 116.036 45.16 115.514 45.16Z" fill="#131313"/>
<path d="M121.404 45V37H122.524L122.636 38.792L122.428 38.616C122.599 38.1893 122.828 37.848 123.116 37.592C123.404 37.3253 123.735 37.1333 124.108 37.016C124.492 36.8987 124.887 36.84 125.292 36.84C125.868 36.84 126.391 36.952 126.86 37.176C127.329 37.3893 127.703 37.72 127.98 38.168C128.268 38.616 128.412 39.1867 128.412 39.88V45H127.132V40.328C127.132 39.4427 126.94 38.8293 126.556 38.488C126.183 38.136 125.719 37.96 125.164 37.96C124.78 37.96 124.396 38.0507 124.012 38.232C123.628 38.4133 123.308 38.7067 123.052 39.112C122.807 39.5173 122.684 40.0613 122.684 40.744V45H121.404Z" fill="#131313"/>
<path d="M133.089 34.728V42.792C133.089 43.1867 133.201 43.48 133.425 43.672C133.649 43.864 133.937 43.96 134.289 43.96C134.598 43.96 134.865 43.9067 135.089 43.8C135.313 43.6933 135.516 43.5493 135.697 43.368L136.145 44.44C135.9 44.664 135.606 44.84 135.265 44.968C134.934 45.096 134.55 45.16 134.113 45.16C133.708 45.16 133.329 45.0907 132.977 44.952C132.625 44.8027 132.342 44.5733 132.129 44.264C131.926 43.944 131.82 43.528 131.809 43.016V35.08L133.089 34.728ZM136.001 37V38.104H130.209V37H136.001Z" fill="#131313"/>
<path d="M142.576 39.832C142.576 39.2347 142.416 38.776 142.096 38.456C141.776 38.1253 141.323 37.96 140.736 37.96C140.181 37.96 139.712 38.0827 139.328 38.328C138.944 38.5627 138.661 38.9467 138.48 39.48L137.44 38.84C137.653 38.2427 138.048 37.7627 138.624 37.4C139.2 37.0267 139.915 36.84 140.768 36.84C141.344 36.84 141.867 36.9413 142.336 37.144C142.805 37.336 143.173 37.6347 143.44 38.04C143.717 38.4347 143.856 38.9467 143.856 39.576V43.448C143.856 43.832 144.059 44.024 144.464 44.024C144.667 44.024 144.864 43.9973 145.056 43.944L144.992 44.952C144.779 45.0587 144.501 45.112 144.16 45.112C143.851 45.112 143.573 45.0533 143.328 44.936C143.083 44.8187 142.891 44.6427 142.752 44.408C142.613 44.1627 142.544 43.8587 142.544 43.496V43.336L142.864 43.384C142.736 43.8 142.517 44.1413 142.208 44.408C141.899 44.664 141.552 44.856 141.168 44.984C140.784 45.1013 140.405 45.16 140.032 45.16C139.563 45.16 139.125 45.08 138.72 44.92C138.315 44.76 137.989 44.52 137.744 44.2C137.509 43.8693 137.392 43.464 137.392 42.984C137.392 42.3867 137.589 41.896 137.984 41.512C138.389 41.1173 138.949 40.8507 139.664 40.712L142.832 40.088V41.144L140.256 41.672C139.733 41.7787 139.344 41.928 139.088 42.12C138.832 42.312 138.704 42.5787 138.704 42.92C138.704 43.2507 138.832 43.5227 139.088 43.736C139.355 43.9387 139.728 44.04 140.208 44.04C140.517 44.04 140.811 44.0027 141.088 43.928C141.376 43.8427 141.632 43.72 141.856 43.56C142.08 43.3893 142.256 43.1813 142.384 42.936C142.512 42.68 142.576 42.3813 142.576 42.04V39.832Z" fill="#131313"/>
<path d="M148.183 33.32V42.968C148.183 43.3733 148.257 43.656 148.407 43.816C148.556 43.9653 148.796 44.04 149.127 44.04C149.34 44.04 149.516 44.024 149.655 43.992C149.793 43.96 149.98 43.9013 150.215 43.816L150.007 44.936C149.836 45.0107 149.649 45.064 149.447 45.096C149.244 45.1387 149.036 45.16 148.823 45.16C148.172 45.16 147.687 44.984 147.367 44.632C147.057 44.28 146.903 43.7413 146.903 43.016V33.32H148.183Z" fill="#131313"/>
</g>
<defs>
<clipPath id="clip0_161_607">
<rect width="174" height="54" fill="white"/>
</clipPath>
</defs>
</svg>
