 <svg
      width="278"
      height="50"
      viewBox="0 0 278 50"
      fill="none"
      xmlns="http://www.w3.org/2000/svg"
    >
      <path
        fillRule="evenodd"
        clipRule="evenodd"
        d="M35.1391 14.344C32.8779 12.9952 30.2195 12.2753 27.5 12.2753V0C32.939 0 38.2558 1.43987 42.7782 4.13752C47.3006 6.83516 50.8252 10.6694 52.9067 15.1554C54.988 19.6414 55.5327 24.5778 54.4716 29.3401C53.4105 34.1025 50.7914 38.477 46.9454 41.9104C43.0995 45.3439 38.1994 47.6821 32.865 48.6294C27.5305 49.5767 22.0011 49.0905 16.9762 47.2324C11.9512 45.3741 7.65632 42.2275 4.63459 38.1901C1.61285 34.1528 0 29.4062 0 24.5506H13.75C13.75 26.9784 14.5564 29.3517 16.0673 31.3704C17.5781 33.389 19.7256 34.9623 22.2382 35.8915C24.7506 36.8206 27.5153 37.0636 30.1825 36.5899C32.8497 36.1163 35.2997 34.9472 37.2228 33.2305C39.1457 31.5137 40.4553 29.3265 40.9857 26.9454C41.5163 24.5642 41.2441 22.096 40.2034 19.8531C39.1626 17.61 37.4003 15.6928 35.1391 14.344Z"
        fill="#636363"
      />
      <path
        fillRule="evenodd"
        clipRule="evenodd"
        d="M13.75 6.4874e-06C13.75 1.61202 13.3944 3.20825 12.7033 4.69756C12.0123 6.18686 10.9995 7.54007 9.72272 8.67994C8.44592 9.81982 6.93013 10.724 5.2619 11.3409C3.59367 11.9578 1.80567 12.2753 6.01026e-07 12.2753L0 24.5506C3.61135 24.5506 7.18734 23.9156 10.5238 22.6818C13.8603 21.448 16.8919 19.6396 19.4454 17.3598C21.999 15.0802 24.0247 12.3737 25.4067 9.3951C26.7887 6.41648 27.5 3.22402 27.5 0L13.75 6.4874e-06Z"
        fill="#636363"
      />
      <path
        d="M172.726 17.7409H166.055V36.6599H172.726V17.7409Z"
        fill="#636363"
      />
      <path
        d="M166.797 14.1983C167.494 14.8212 168.366 15.1326 169.412 15.1326C170.459 15.1326 171.317 14.8212 171.985 14.1983C172.655 13.5496 172.989 12.771 172.989 11.8627C172.989 10.9284 172.655 10.1498 171.985 9.52698C171.317 8.90411 170.459 8.5927 169.412 8.5927C168.366 8.5927 167.494 8.90411 166.797 9.52698C166.128 10.1498 165.793 10.9284 165.793 11.8627C165.793 12.771 166.128 13.5496 166.797 14.1983Z"
        fill="#636363"
      />
      <path
        d="M70.3398 36.6599V9.17661H77.1858V31.2879H90.8342V36.6599H70.3398Z"
        fill="#636363"
      />
      <path
        fillRule="evenodd"
        clipRule="evenodd"
        d="M103.163 37.0881C100.982 37.0881 99.0058 36.6599 97.2325 35.8035C95.4883 34.9211 94.1075 33.7273 93.09 32.222C92.0726 30.7168 91.5639 29.0299 91.5639 27.1614C91.5639 25.2929 92.0726 23.619 93.09 22.1397C94.1075 20.6604 95.4883 19.4925 97.2325 18.6362C98.9766 17.7537 100.953 17.3126 103.163 17.3126C105.372 17.3126 107.349 17.7409 109.093 18.5972C110.837 19.4536 112.218 20.6345 113.235 22.1397C114.253 23.619 114.762 25.2929 114.762 27.1614C114.762 29.0299 114.253 30.7168 113.235 32.222C112.218 33.7273 110.837 34.9211 109.093 35.8035C107.349 36.6599 105.372 37.0881 103.163 37.0881ZM103.163 31.6771C104.122 31.6771 104.965 31.4954 105.692 31.1321C106.419 30.7428 106.971 30.2108 107.349 29.5361C107.756 28.8354 107.959 28.0437 107.959 27.1614C107.959 26.2791 107.756 25.5134 107.349 24.8647C106.942 24.1899 106.375 23.6709 105.648 23.3076C104.95 22.9182 104.122 22.7236 103.163 22.7236C102.232 22.7236 101.404 22.9182 100.677 23.3076C99.9506 23.6709 99.3836 24.1899 98.9766 24.8647C98.5696 25.5395 98.3663 26.318 98.3663 27.2003C98.3663 28.0568 98.5696 28.8354 98.9766 29.5361C99.3836 30.2108 99.9506 30.7428 100.677 31.1321C101.404 31.4954 102.232 31.6771 103.163 31.6771Z"
        fill="#636363"
      />
      <path
        fillRule="evenodd"
        clipRule="evenodd"
        d="M120.045 44.0562C121.819 44.7828 123.868 45.1462 126.194 45.1462C128.461 45.1462 130.481 44.7439 132.255 43.9394C134.028 43.1349 135.423 42.019 136.441 40.5917C137.458 39.1643 137.968 37.4774 137.968 35.5309V17.7409H131.426V19.012C130.94 18.6464 130.387 18.3395 129.769 18.0912C128.635 17.5981 127.342 17.3515 125.888 17.3515C123.941 17.3515 122.211 17.7668 120.699 18.5972C119.188 19.4017 117.996 20.5176 117.124 21.945C116.252 23.3465 115.816 24.9295 115.816 26.6943C115.816 28.4331 116.252 30.0161 117.124 31.4435C117.996 32.8709 119.188 33.9998 120.699 34.8303C122.211 35.6607 123.941 36.076 125.888 36.076C127.313 36.076 128.606 35.8295 129.769 35.3364C130.332 35.0975 130.841 34.816 131.295 34.4918V35.6867C131.295 37.0102 130.816 38.0353 129.856 38.762C128.926 39.4887 127.633 39.852 125.976 39.852C124.638 39.852 123.49 39.6444 122.531 39.2291C121.601 38.814 120.757 38.204 120.002 37.3995L115.903 41.0587C116.92 42.3564 118.301 43.3556 120.045 44.0562ZM129.551 30.2367C128.882 30.6001 128.083 30.7818 127.153 30.7818C126.223 30.7818 125.409 30.6001 124.711 30.2367C124.042 29.8734 123.519 29.3803 123.141 28.7574C122.763 28.1087 122.574 27.4209 122.574 26.6943C122.574 25.9157 122.763 25.215 123.141 24.5922C123.519 23.9693 124.057 23.4762 124.755 23.1129C125.452 22.7495 126.252 22.5679 127.153 22.5679C128.083 22.5679 128.882 22.7495 129.551 23.1129C130.249 23.4762 130.772 23.9693 131.121 24.5922C131.499 25.215 131.688 25.9157 131.688 26.6943C131.688 27.4728 131.499 28.1735 131.121 28.7963C130.772 29.3933 130.249 29.8734 129.551 30.2367Z"
        fill="#636363"
      />
      <path
        fillRule="evenodd"
        clipRule="evenodd"
        d="M152.008 37.0881C149.827 37.0881 147.85 36.6599 146.077 35.8035C144.332 34.9211 142.952 33.7273 141.934 32.222C140.917 30.7168 140.408 29.0299 140.408 27.1614C140.408 25.2929 140.917 23.619 141.934 22.1397C142.952 20.6604 144.332 19.4925 146.077 18.6362C147.821 17.7537 149.798 17.3126 152.008 17.3126C154.216 17.3126 156.193 17.7409 157.937 18.5972C159.682 19.4536 161.062 20.6345 162.08 22.1397C163.097 23.619 163.606 25.2929 163.606 27.1614C163.606 29.0299 163.097 30.7168 162.08 32.222C161.062 33.7273 159.682 34.9211 157.937 35.8035C156.193 36.6599 154.216 37.0881 152.008 37.0881ZM152.008 31.6771C152.966 31.6771 153.809 31.4954 154.536 31.1321C155.262 30.7428 155.815 30.2108 156.193 29.5361C156.6 28.8354 156.804 28.0437 156.804 27.1614C156.804 26.2791 156.6 25.5134 156.193 24.8647C155.786 24.1899 155.22 23.6709 154.492 23.3076C153.795 22.9182 152.966 22.7236 152.008 22.7236C151.077 22.7236 150.248 22.9182 149.522 23.3076C148.794 23.6709 148.228 24.1899 147.821 24.8647C147.414 25.5395 147.21 26.318 147.21 27.2003C147.21 28.0568 147.414 28.8354 147.821 29.5361C148.228 30.2108 148.794 30.7428 149.522 31.1321C150.248 31.4954 151.077 31.6771 152.008 31.6771Z"
        fill="#636363"
      />
      <path
        fillRule="evenodd"
        clipRule="evenodd"
        d="M188.761 37.0491C187.338 37.0491 186.029 36.8027 184.837 36.3096C184.21 36.0501 183.644 35.7402 183.138 35.3801V44.6402H176.553V17.7409H183.224V19.0466C183.708 18.6932 184.246 18.3876 184.837 18.1301C186.029 17.611 187.338 17.3515 188.761 17.3515C190.768 17.3515 192.541 17.7798 194.081 18.6362C195.652 19.4925 196.873 20.6604 197.744 22.1397C198.646 23.619 199.096 25.3059 199.096 27.2003C199.096 29.0949 198.646 30.7818 197.744 32.261C196.873 33.7403 195.652 34.9081 194.081 35.7645C192.541 36.621 190.768 37.0491 188.761 37.0491ZM187.542 31.6771C188.5 31.6771 189.329 31.4824 190.026 31.0932C190.754 30.7039 191.32 30.1718 191.727 29.4971C192.134 28.8224 192.338 28.0568 192.338 27.2003C192.338 26.318 192.134 25.5395 191.727 24.8647C191.32 24.1899 190.754 23.6709 190.026 23.3076C189.329 22.9182 188.515 22.7236 187.584 22.7236C186.655 22.7236 185.826 22.9182 185.1 23.3076C184.401 23.6709 183.85 24.1899 183.443 24.8647C183.036 25.5395 182.832 26.318 182.832 27.2003C182.832 28.0568 183.021 28.8224 183.399 29.4971C183.806 30.1718 184.372 30.7039 185.1 31.0932C185.826 31.4824 186.64 31.6771 187.542 31.6771Z"
        fill="#636363"
      />
      <path
        d="M205.626 36.6988C206.847 36.9843 208.082 37.127 209.331 37.127C211.977 37.127 214.07 36.5821 215.611 35.492C217.18 34.4021 217.965 32.9358 217.965 31.0932C217.965 29.8994 217.719 28.9391 217.224 28.2125C216.73 27.4599 216.091 26.863 215.306 26.4218C214.521 25.9806 213.692 25.6302 212.82 25.3707C211.948 25.1112 211.119 24.8906 210.335 24.7089C209.55 24.5272 208.911 24.3197 208.416 24.0861C207.922 23.8525 207.675 23.5411 207.675 23.1518C207.675 22.7885 207.864 22.5159 208.241 22.3343C208.619 22.1267 209.186 22.023 209.942 22.023C210.727 22.023 211.526 22.1656 212.34 22.4511C213.183 22.7365 213.939 23.2298 214.607 23.9304L218.401 20.5048C217.443 19.4147 216.193 18.5972 214.651 18.0523C213.14 17.4814 211.483 17.1958 209.681 17.1958C207.966 17.1958 206.469 17.4553 205.19 17.9743C203.91 18.4935 202.921 19.2071 202.224 20.1154C201.527 20.9977 201.178 22.0489 201.178 23.2687C201.178 24.4105 201.425 25.3578 201.919 26.1104C202.412 26.837 203.053 27.408 203.837 27.8232C204.622 28.2384 205.451 28.5629 206.323 28.7963C207.195 29.0299 208.024 29.2505 208.809 29.4582C209.593 29.6399 210.233 29.8605 210.727 30.12C211.251 30.3536 211.512 30.7039 211.512 31.171C211.512 31.5343 211.294 31.8197 210.858 32.0274C210.451 32.235 209.855 32.3389 209.07 32.3389C207.936 32.3389 206.889 32.1572 205.931 31.7938C204.971 31.4046 204.142 30.8726 203.445 30.1978L199.651 33.6235C200.379 34.3242 201.251 34.9471 202.268 35.492C203.314 36.011 204.434 36.4133 205.626 36.6988Z"
        fill="#636363"
      />
      <path
        d="M230.131 37.0881C228.184 37.0881 226.454 36.7377 224.943 36.037C223.46 35.3104 222.298 34.3242 221.455 33.0785C220.611 31.8069 220.19 30.3536 220.19 28.7185V17.7409H226.861V28.6407C226.861 29.2894 226.977 29.8475 227.211 30.3146C227.472 30.7818 227.85 31.1451 228.344 31.4046C228.839 31.6641 229.434 31.7938 230.131 31.7938C231.12 31.7938 231.905 31.5213 232.486 30.9763C233.068 30.4054 233.358 29.6269 233.358 28.6407V17.7409H240.03V28.6796C240.03 30.3406 239.609 31.8069 238.765 33.0785C237.922 34.3242 236.76 35.3104 235.276 36.037C233.794 36.7377 232.079 37.0881 230.131 37.0881Z"
        fill="#636363"
      />
      <path
        d="M250.018 17.7409H243.346V36.6599H250.018V25.6043C250.018 24.9555 250.163 24.4105 250.454 23.9693C250.774 23.5282 251.196 23.1907 251.719 22.9572C252.242 22.6976 252.838 22.5679 253.506 22.5679C254.466 22.5679 255.265 22.8404 255.904 23.3854C256.574 23.9044 256.908 24.6441 256.908 25.6043V36.6599H263.579V25.6043C263.579 24.9555 263.725 24.4105 264.015 23.9693C264.336 23.5282 264.756 23.1907 265.28 22.9572C265.803 22.6976 266.399 22.5679 267.068 22.5679C268.027 22.5679 268.826 22.8404 269.466 23.3854C270.134 23.9044 270.468 24.6441 270.468 25.6043V36.6599H277.141V24.9425C277.141 23.3595 276.763 22.01 276.007 20.894C275.279 19.752 274.277 18.8827 272.998 18.2859C271.748 17.6629 270.309 17.3515 268.681 17.3515C267.024 17.3515 265.526 17.6759 264.19 18.3248C263.321 18.7381 262.562 19.2716 261.911 19.9251C261.305 19.2415 260.568 18.6821 259.698 18.2468C258.536 17.65 257.213 17.3515 255.731 17.3515C254.161 17.3515 252.751 17.65 251.501 18.2468C250.957 18.4952 250.463 18.7926 250.018 19.1391V17.7409Z"
        fill="#636363"
      />
    </svg>